<svg id="레이어_1" data-name="레이어 1" xmlns="http://www.w3.org/2000/svg" viewBox="0 0 511.16 511.16"><defs><style>.cls-1{fill:#ff7b7b;}</style></defs><path class="cls-1" d="M500.21,239.37C359,239.37,244.62,353.79,244.62,495S359,750.54,500.21,750.54,755.79,636.12,755.79,495,641.37,239.37,500.21,239.37ZM600.29,552.54a28,28,0,0,1,0,39.65L597.44,595a28,28,0,0,1-39.65,0l-57.58-57.58L442.62,595A28,28,0,0,1,403,595l-2.85-2.85a28,28,0,0,1,0-39.65L457.71,495l-57.59-57.59a28,28,0,0,1,0-39.65l2.85-2.85a28,28,0,0,1,39.65,0l57.59,57.59,57.58-57.59a28,28,0,0,1,39.65,0l2.85,2.85a28,28,0,0,1,0,39.65L542.71,495Z" transform="translate(-244.62 -239.37)"/></svg>