<svg xmlns="http://www.w3.org/2000/svg" viewBox="0 0 896.87 728.2"><defs><style>.cls-1{fill:#30345e;}</style></defs><g id="레이어_3" data-name="레이어 3"><circle class="cls-1" cx="631.53" cy="271.18" r="57.05"/><path class="cls-1" d="M737.31,390l36.94,129.24s148.21-65.58,160-52.47S960.06,496.49,752,600.55C699.49,626.78,629.31,426,629.31,426" transform="translate(-51.57 -135.9)"/><path class="cls-1" d="M666.7,329.05s-47.22,6.55-80,48.52L535.54,333s-168.76,67.29-190.62,50S529,249,561.77,270,668,322.49,666.7,329.05Z" transform="translate(-51.57 -135.9)"/><path class="cls-1" d="M681.79,662.75c-41.3-80.89-120-222.73-159.52-213.32,0,0-546.93,407.91-461.68,414.46S326.84,715.68,326.84,715.68l321.76,1.11C676.41,716.89,694.44,687.52,681.79,662.75ZM420,656.66l89.19-62.95,48.53,48.53Z" transform="translate(-51.57 -135.9)"/><path class="cls-1" d="M828.64,366a31.27,31.27,0,0,1-8.11-1c-13.77-3.74-20.07-20.79-21.77-58.83L797.6,273.6c-47.87,40-73.23,58.88-92.73,58.88a29.11,29.11,0,0,1-7.7-1,23.15,23.15,0,0,1-14.66-11.31c-2.94-5.54-3.5-12.12-1.62-19,0,0,0-.08,0-.13,3.84-12.47,16.94-23.83,27.47-23.83a13.06,13.06,0,0,1,3.41.44c4.8,1.3,7,6,9,10.14,1.1,2.32,2.6,5.5,3.83,5.84a4.2,4.2,0,0,0,1.12.13c8.21,0,30.2-14.8,71.24-47.95L795.7,206.6c-.61-15.09-1.6-31.32-5.76-32.45a4.88,4.88,0,0,0-1.23-.13c-2.73,0-11.08,1.6-29.5,16.47a4,4,0,0,1-2.51.89,3.84,3.84,0,0,1-.83-.09,4,4,0,0,1-2.73-2.09l-6-11.83a4,4,0,0,1,.88-4.79c23.31-21.07,44.75-32.68,60.37-32.68a26.16,26.16,0,0,1,6.89.87c15.84,4.3,19.53,25.77,20.36,59l.18,16.45C879.08,181.79,900.25,170,918,170a35.79,35.79,0,0,1,9.4,1.25c6.62,1.8,11.63,5.53,14.5,10.8a22.45,22.45,0,0,1,1.37,17.67c-2,7.16-10.4,17.6-18.38,20.5a21.57,21.57,0,0,1-8.16,2h0a11.49,11.49,0,0,1-5-1.08c-3.25-1.55-5-5-6.9-8.68-1.49-2.92-3.35-6.55-5.27-7.07a6.05,6.05,0,0,0-1.57-.18c-11.74,0-40.48,21.79-61.78,38.84l2.19,45.83c1.06,26.06,3.92,39.9,8.49,41.14a10.22,10.22,0,0,0,2.66.35c6.1,0,15.78-5,32.39-16.66a4.06,4.06,0,0,1,2.3-.72,4.24,4.24,0,0,1,1.11.15,4,4,0,0,1,2.58,2.29l5.06,12a4,4,0,0,1-1,4.5C869.09,354,846,366,828.64,366Z" transform="translate(-51.57 -135.9)"/><path class="cls-1" d="M808.34,143.9a22.08,22.08,0,0,1,5.84.73c12.08,3.28,16.52,19.31,17.41,55.24l.27,24.61C876.32,188.67,899.89,174,918,174a31.56,31.56,0,0,1,8.35,1.11c12.52,3.4,16.09,14.1,13.09,23.47-1.64,6-9.32,15.54-16,17.91a18,18,0,0,1-6.71,1.69,7.64,7.64,0,0,1-3.27-.71c-4.52-2.15-6.33-14.22-12.8-16a9.75,9.75,0,0,0-2.62-.32c-10.51,0-31.12,13.07-65.88,41L834.43,290c1.15,28.11,4.11,42.82,11.44,44.81a14.22,14.22,0,0,0,3.71.49c6.64,0,16.11-4.32,34.69-17.38l5.07,12c-22.82,20.9-45,32-60.7,32a26.82,26.82,0,0,1-7.06-.88c-11.64-3.17-17.26-20-18.83-55.15l-1.44-40.7c-52.33,43.9-77.79,63.2-96.44,63.2a25.22,25.22,0,0,1-6.65-.88c-11.22-3.05-16.75-13.36-13.47-25.44,3.47-11.27,15.36-21,23.65-21a9.16,9.16,0,0,1,2.37.3c6,1.64,6.75,14.34,12.78,16a8.11,8.11,0,0,0,2.17.27c8.77,0,27.43-11.33,75.3-50.09l-1.33-41.14c-1-25.28-2.66-34.53-8.7-36.18a8.85,8.85,0,0,0-2.28-.27c-5.14,0-14.81,3.48-32,17.36l-6.05-11.83c23-20.77,43.62-31.65,57.69-31.65m0-8h0c-16.61,0-39,12-63.05,33.72a8,8,0,0,0-1.76,9.57l6,11.83A8,8,0,0,0,755,195.2a7.94,7.94,0,0,0,6.69-1.6C779,179.7,786.47,178.17,788.4,178a24.79,24.79,0,0,1,1.66,6.73,218.49,218.49,0,0,1,1.64,22l1.2,37.13c-21.45,17.28-37.36,29.27-48.57,36.6-11.39,7.45-16.21,8.94-18.07,9.17a40.76,40.76,0,0,1-1.87-3.63c-2.09-4.44-4.95-10.51-11.53-12.3a17.15,17.15,0,0,0-4.46-.58c-12.29,0-26.92,12.45-31.29,26.65,0,.09-.06.18-.08.26-4.41,16.23,3.62,31.06,19.1,35.26a33.18,33.18,0,0,0,8.74,1.16c20,0,43.49-16.75,89-54.58l.87,24.36v.07c.84,18.83,2.76,32.11,6,41.79,3.89,11.44,10.17,18.42,18.67,20.73a35,35,0,0,0,9.16,1.16c18.33,0,42.42-12.44,66.1-34.13a8,8,0,0,0,2-9l-5.06-12a8,8,0,0,0-5.17-4.58,8,8,0,0,0-6.81,1.14c-9.73,6.84-23.43,15.93-30.09,15.93a6.63,6.63,0,0,1-1.29-.13c-.44-.5-1.91-2.6-3.25-9.46-1.25-6.43-2.11-15.6-2.61-28v-.05l-2.09-43.79C856.28,233.15,868.76,224,878.42,218c12.26-7.67,17.54-8.81,19.6-8.81h.26a28,28,0,0,1,3,5.07c2,3.91,4.27,8.34,8.71,10.46l.07,0a15.71,15.71,0,0,0,6.63,1.45,25.22,25.22,0,0,0,9.6-2.23c9.17-3.38,18.45-14.87,20.78-23.09a26.4,26.4,0,0,0-1.7-20.72c-3.4-6.25-9.26-10.66-17-12.75A39.88,39.88,0,0,0,918,166c-17.82,0-38.41,10.86-78.3,42.05l-.09-8.27v-.11c-.49-19.69-2-32.64-4.86-42-3.54-11.55-9.58-18.34-18.45-20.75a30.24,30.24,0,0,0-7.94-1Z" transform="translate(-51.57 -135.9)"/></g></svg>