<svg id="레이어_1" data-name="레이어 1" xmlns="http://www.w3.org/2000/svg" viewBox="0 0 918.87 878.54"><defs><style>.cls-1{fill:none;stroke:#000;stroke-linecap:round;stroke-linejoin:round;stroke-width:60px;}</style></defs><path class="cls-1" d="M516.45,102.68,606,378.2a17.28,17.28,0,0,0,16.44,11.94h289.7c16.75,0,23.72,21.44,10.16,31.29L687.9,591.71A17.29,17.29,0,0,0,681.62,611l89.52,275.52c5.18,15.93-13,29.18-26.61,19.33L510.16,735.61a17.29,17.29,0,0,0-20.32,0L255.47,905.89c-13.56,9.85-31.79-3.4-26.61-19.33L318.38,611a17.29,17.29,0,0,0-6.28-19.33L77.73,421.43c-13.56-9.85-6.59-31.29,10.16-31.29h289.7A17.28,17.28,0,0,0,394,378.2l89.52-275.52C488.73,86.75,511.27,86.75,516.45,102.68Z" transform="translate(-40.56 -60.73)"/></svg>